<svg xmlns="http://www.w3.org/2000/svg" width="420" height="340" viewBox="0 0 420 340" fill="none"><rect width="420" height="340" fill="#eef1e6"/><circle cx="217" cy="159" r="115" fill="#e2e8d6"/><path d="M28 267h359" stroke="#d6decb" stroke-width="2"/><path d="M69 218h58v49H69z" fill="#b9ceb6"/><path d="M138 177h58v90h-58z" fill="#91b49b"/><path d="M207 134h58v133h-58z" fill="#60977d"/><path d="M276 85h58v182h-58z" fill="#267b64"/><path d="M90 187l71-43 65-45 73-49" stroke="#c5aa66" stroke-width="4" stroke-linecap="round" stroke-dasharray="4 8"/><path d="M283 48l24-6-3 26" stroke="#c5aa66" stroke-width="4" stroke-linecap="round" stroke-linejoin="round"/><rect x="44" y="69" width="114" height="85" rx="11" fill="#fff" transform="rotate(-8 44 69)"/><circle cx="75" cy="90" r="13" fill="#d9e9dd"/><path d="M70 87a5 5 0 0 1 10 0 5 5 0 0 1-10 0m-3 14c1-9 16-9 17-1" fill="#83a68b"/><path d="M97 85l38-5M97 95l27-4M64 119l70-10M65 128l50-7" stroke="#d4ded1" stroke-width="5" stroke-linecap="round"/><circle cx="313" cy="201" r="30" fill="#fff"/><path d="M300 201l9 9 18-19" stroke="#267b64" stroke-width="5" stroke-linecap="round" stroke-linejoin="round"/><path d="M353 267v-62m0 35c-27-3-35-24-29-41 23 4 30 20 29 41m0-10c24-3 37-19 33-37-20 2-34 18-33 37" fill="#829d78" stroke="#829d78" stroke-width="3"/><path d="M336 249h34l-5 22h-24" fill="#c9b78c"/></svg>
